<?xml version="1.0" standalone="no"?><!DOCTYPE svg PUBLIC "-//W3C//DTD SVG 1.1//EN" "http://www.w3.org/Graphics/SVG/1.1/DTD/svg11.dtd"><svg t="1585295646628" class="icon" viewBox="0 0 1024 1024" version="1.1" xmlns="http://www.w3.org/2000/svg" p-id="18741" xmlns:xlink="http://www.w3.org/1999/xlink" width="200" height="200"><defs><style type="text/css"></style></defs><path d="M513.30444 911.686257C317.418601 911.686257 158.042424 752.324736 158.042424 556.424241s159.376177-355.262016 355.262016-355.262016 355.262016 159.376177 355.262016 355.262016-159.361521 355.262016-355.262016 355.262016z m0-703.518164c-192.031145 0-348.256147 156.225002-348.256148 348.256148s156.225002 348.256147 348.256148 348.256147S861.560587 748.440729 861.560587 556.424241 705.335585 208.168093 513.30444 208.168093z" fill="#FEFFFF" p-id="18742"></path><path d="M762.936135 468.48447H601.24421V304.154353a85.741276 85.741276 0 0 0-85.741276-85.741277h-4.396988a85.741276 85.741276 0 0 0-85.741276 85.741277v164.330117H258.396359a85.741276 85.741276 0 0 0-85.741276 85.741276v4.396989a85.741276 85.741276 0 0 0 85.741276 85.741276H425.379326v164.330118a85.741276 85.741276 0 0 0 85.741276 85.741276h4.396989a85.741276 85.741276 0 0 0 85.741276-85.741276V644.364011h161.691925a85.741276 85.741276 0 0 0 85.741276-85.741276v-4.396989a85.741276 85.741276 0 0 0-85.755933-85.741276z" fill="#2c2c2c" p-id="18743" data-spm-anchor-id="a313x.7781069.0.i39" class="selected"></path><path d="M515.502934 897.952996h-4.396988a89.361463 89.361463 0 0 1-89.244211-89.244211V647.866945H258.396359a89.361463 89.361463 0 0 1-89.244211-89.24421v-4.396989a89.361463 89.361463 0 0 1 89.244211-89.24421H421.861735V304.139696a89.361463 89.361463 0 0 1 89.244211-89.24421h4.396988a89.361463 89.361463 0 0 1 89.244211 89.24421v160.827183H762.921478a89.361463 89.361463 0 0 1 89.258867 89.244211v4.396988a89.361463 89.361463 0 0 1-89.258867 89.244211H604.761801v160.827183a89.361463 89.361463 0 0 1-89.258867 89.273524zM258.396359 471.987404a82.326282 82.326282 0 0 0-82.238342 82.238342v4.396989a82.326282 82.326282 0 0 0 82.238342 82.238342h170.485901v167.847708a82.326282 82.326282 0 0 0 82.238342 82.238342h4.396989a82.326282 82.326282 0 0 0 82.238342-82.238342V640.861077h165.194859a82.326282 82.326282 0 0 0 82.238341-82.238342v-4.396989a82.326282 82.326282 0 0 0-82.238341-82.238342H597.741276V304.139696a82.326282 82.326282 0 0 0-82.238342-82.238342h-4.396988a82.326282 82.326282 0 0 0-82.238342 82.238342v167.847708H258.396359z" fill="#FEFFFF" p-id="18744"></path></svg>