<svg width="200" height="200" xmlns="http://www.w3.org/2000/svg">
 <!-- Created with Method Draw - http://github.com/duopixel/Method-Draw/ -->

 <g>
  <title>background</title>
  <rect fill="none" id="canvas_background" height="202" width="202" y="-1" x="-1"/>
  <g display="none" overflow="visible" y="0" x="0" height="100%" width="100%" id="canvasGrid">
   <rect fill="url(#gridpattern)" stroke-width="0" y="0" x="0" height="100%" width="100%"/>
  </g>
 </g>
 <g>
  <title>Layer 1</title>
  <!-- Created with Method Draw - http://github.com/duopixel/Method-Draw/ -->
  <g stroke="null" transform="matrix(0.9570910782335031,0,0,0.9570910782335031,-62.82902423051246,-40.9667781344765) " id="svg_26">
   <title stroke="null" transform="translate(-1.6074283123016357,3.2148566246032715) translate(-7.233427047729492,-13.261282920837402) translate(-862.4906616210938,-843.408935546875) translate(936.8624877929688,0) translate(0,892.25) ">background</title>
   <rect stroke="null" x="64.530971" y="37.794638" width="212" height="202" id="svg_24" fill="none"/>
   <g stroke="null" id="svg_23" display="none">
    <rect stroke="null" id="svg_27" width="210" height="200" x="65.530971" y="38.794638" stroke-width="0" fill="url(#gridpattern)"/>
   </g>
  </g>
  <defs stroke="null" transform="translate(-1.6074283123016357,3.2148566246032715) translate(-7.233427047729492,-13.261282920837402) translate(-862.4906616210938,-843.408935546875) translate(936.8624877929688,0) translate(0,892.25) ">
   <style stroke="null" type="text/css"/>
  </defs>
  <path stroke="null" d="m100.421734,13.626126l-0.308308,0c-18.80684,0 -34.068126,15.261286 -34.068126,34.068116l0,7.091107c0,12.02404 6.320333,22.660691 15.723753,28.672716l0,-34.376434c0,-10.174184 8.170179,-18.344373 18.344373,-18.344373l0.308308,0c10.174194,0 18.344373,8.170189 18.344373,18.344373l0,34.376434c9.40342,-6.012025 15.723753,-16.648676 15.723753,-28.672716l0,-7.091107c0,-18.80684 -15.261286,-34.068116 -34.068126,-34.068116z" fill="#f39c12" id="svg_22"/>
  <path stroke="null" d="m114.141481,91.936562l0,-42.85493c0,-7.553564 -6.166184,-13.719738 -13.719747,-13.719738l-0.308308,0c-7.553564,0 -13.719738,6.166174 -13.719738,13.719738l0,42.85493l-7.091107,-4.624635c-11.253276,-7.091107 -17.881907,-19.423455 -17.881907,-32.680736l0,-7.091097c0,-21.273311 17.41944,-38.692761 38.692752,-38.692761l0.308308,0c21.273311,0 38.692761,17.41945 38.692761,38.692761l0,7.091097c0,13.257281 -6.628641,25.43548 -17.881916,32.680736l-7.091097,4.624635zm-14.028055,-65.823939l0.308308,0c12.640666,0 22.969009,10.328353 22.969009,22.969009l0,24.20224c4.162169,-5.087092 6.474482,-11.561574 6.474482,-18.498522l0,-7.091107c0,-16.186209 -13.257281,-29.443491 -29.443491,-29.443491l-0.308308,0c-16.186209,0 -29.443491,13.257281 -29.443491,29.443491l0,7.091107c0,6.78279 2.312313,13.257271 6.474482,18.498522l0,-24.20224c0,-12.640656 10.174194,-22.969009 22.969009,-22.969009z" fill="#3F285E" id="svg_21"/>
  <path stroke="null" d="m173.568772,172.251004l-147.988227,0c-10.174194,0 -18.498532,-8.324338 -18.498532,-18.498532l20.040071,-81.85599c0,-10.174184 8.324338,-18.498522 18.498532,-18.498522l107.908085,0c10.174184,0 18.498532,8.324338 18.498532,18.498522l20.040071,81.85599c0,10.174194 -8.324338,18.498532 -18.498532,18.498532z" fill="#f39c12" id="svg_20"/>
  <path stroke="null" d="m173.953386,176.875629l-147.988227,0c-12.794815,0 -23.123158,-10.328343 -23.123158,-23.123158l0,-0.616615l20.040071,-81.85599c0.308308,-12.486507 10.636651,-22.506542 23.123158,-22.506542l107.908085,0c12.486507,0 22.81485,10.020035 23.123158,22.506542l20.040071,81.85599l0,0.616615c0,12.794815 -10.328343,23.123158 -23.123158,23.123158zm-161.862123,-22.660691c0.308308,7.399415 6.320333,13.41143 13.873897,13.41143l147.988227,0c7.399415,0 13.565589,-6.012015 13.873897,-13.41143l-20.040071,-81.85599l0,-0.616615c0,-7.707722 -6.166174,-13.873897 -13.873897,-13.873897l-107.908085,0c-7.707722,0 -13.873897,6.166174 -13.873897,13.873897l0,0.616615l-20.040071,81.85599z" fill="#3F285E" id="svg_19"/>
  <path stroke="null" d="m144.664054,173.484235l42.238305,-42.392454" fill="#F4E829" id="svg_18"/>
  <path stroke="null" d="m183.712901,127.828329l6.54077,6.54077l-42.293797,42.292266l-6.539239,-6.539239l42.292266,-42.293797z" fill="#3F285E" id="svg_17"/>
  <path stroke="null" d="m109.362687,172.096845l69.523641,-69.523632" fill="#F4E829" id="svg_16"/>
  <path stroke="null" d="m175.501098,99.32364l6.54077,6.539229l-69.543673,69.543673l-6.54077,-6.539229l69.543673,-69.543673z" fill="#3F285E" id="svg_15"/>
  <path stroke="null" d="m100.8842,85.616229m-13.103132,0a13.103122,13.103122 0 1 0 26.206254,0a13.103122,13.103122 0 1 0 -26.206254,0z" fill="#FFFFFF" id="svg_14"/>
 </g>
</svg>