<?xml version="1.0" standalone="no"?><!DOCTYPE svg PUBLIC "-//W3C//DTD SVG 1.1//EN" "http://www.w3.org/Graphics/SVG/1.1/DTD/svg11.dtd"><svg t="1587450630795" class="icon" viewBox="0 0 1024 1024" version="1.1" xmlns="http://www.w3.org/2000/svg" p-id="5177" xmlns:xlink="http://www.w3.org/1999/xlink" width="200" height="200"><defs><style type="text/css"></style></defs><path d="M322.3 211.6h125.3v52.8H322.3zM620.6 356.6c-64.5 0-117 52.5-117 117s52.5 117 117 117 117-52.5 117-117-52.5-117-117-117z m0 181.2c-35.4 0-64.2-28.8-64.2-64.2s28.8-64.2 64.2-64.2c35.4 0 64.2 28.8 64.2 64.2s-28.8 64.2-64.2 64.2z" fill="#515151" p-id="5178"></path><path d="M874.3 66.6H149.4c-44.5 0-80.7 36.2-80.7 80.7v579.9c0 44.5 36.2 80.7 80.7 80.7h262v-52.8h-262c-15.4 0-28-12.6-28-28V147.4c0-15.4 12.6-28 28-28h724.9c15.4 0 28 12.6 28 28v579.9c0 15.4-12.6 28-28 28h-44.5V808h44.5c44.5 0 80.7-36.2 80.7-80.7V147.4c0-44.6-36.2-80.8-80.7-80.8z" fill="#515151" p-id="5179"></path><path d="M177.4 211.6h89v52.8h-89zM177.4 429.1h161.5v52.8H177.4zM177.4 320.3h197.7v52.8H177.4zM780.2 314c-42.6-42.6-99.3-66.1-159.6-66.1S503.6 271.4 461 314s-66.1 99.3-66.1 159.6c0 32.6 6.8 64.1 20.3 93.5 12.5 27.3 30 51.4 52.1 71.9v319.1l153.2-76.6 141.3 70.6 12 6V639c22.1-20.5 39.6-44.6 52.1-71.9 13.5-29.4 20.3-60.9 20.3-93.5 0.1-60.3-23.4-117-66-159.6zM520.1 675.5c31.2 15.6 65.7 23.8 100.5 23.8s69.2-8.2 100.5-23.8v197.2l-96.8-48.4-3.7-1.8-100.5 50.2V675.5z m100.5-29c-95.4 0-173-77.6-173-173s77.6-173 173-173 173 77.6 173 173c-0.1 95.4-77.7 173-173 173z" fill="#515151" p-id="5180"></path></svg>