<svg width="200" height="200" xmlns="http://www.w3.org/2000/svg">
 <!-- Created with Method Draw - http://github.com/duopixel/Method-Draw/ -->

 <g>
  <title>background</title>
  <rect fill="none" id="canvas_background" height="202" width="202" y="-1" x="-1"/>
  <g display="none" overflow="visible" y="0" x="0" height="100%" width="100%" id="canvasGrid">
   <rect fill="url(#gridpattern)" stroke-width="0" y="0" x="0" height="100%" width="100%"/>
  </g>
 </g>
 <g>
  <title>Layer 1</title>
  <defs>
   <style type="text/css"/>
  </defs>
  <defs>
   <style type="text/css"/>
  </defs>
  <path stroke="null" id="svg_11" fill="#ff5656" d="m99.800006,4.036736c-52.98901,0 -95.76327,42.774261 -95.76327,95.76327s42.774261,95.76327 95.76327,95.76327s95.76327,-42.774261 95.76327,-95.76327s-42.774261,-95.76327 -95.76327,-95.76327zm-50.435322,136.622266c-0.957633,-3.830531 1.915265,-9.576327 7.02264,-17.556599c-4.468953,-7.341851 -7.02264,-15.960545 -7.02264,-25.217661c0,-27.132927 22.663974,-49.47769 50.435322,-49.47769c9.257116,0 18.195021,2.553687 26.175294,7.341851c0.319211,-0.319211 1.276844,-0.957633 2.553687,-1.596054c2.872898,-1.596054 4.468953,-2.872898 5.426585,-3.192109c3.830531,-1.915265 8.618694,-2.872898 12.130014,-1.915265c0.319211,0.638422 0.319211,1.276844 0.319211,2.234476c0,10.53396 -19.791076,33.836356 -38.94373,52.350588c-4.468953,4.468953 -40.220574,37.986097 -55.861908,37.986097c-0.638422,0 -2.234476,-0.319211 -2.234476,-0.957633zm52.350588,10.214749c-9.257116,0 -18.514232,-2.872898 -26.494505,-7.980273c15.960545,-9.895538 34.793988,-28.40977 37.986097,-31.601879c11.491592,-11.491592 22.983185,-24.579239 30.325036,-35.751621c4.468953,7.341851 7.341851,16.279756 7.341851,25.856083c0,27.132927 -22.025552,49.47769 -49.158479,49.47769z"/>
  <path stroke="null" id="svg_12" fill="#78E6E4" d="m92.138944,63.409963c-6.065007,0 -10.853171,4.788164 -10.853171,10.53396c0,5.745796 4.788164,10.53396 10.853171,10.53396c5.745796,0 10.853171,-4.788164 10.853171,-10.53396c0,-6.065007 -4.788164,-10.53396 -10.853171,-10.53396z"/>
 </g>
</svg>