<svg width="200" height="200" xmlns="http://www.w3.org/2000/svg">
 <!-- Created with Method Draw - http://github.com/duopixel/Method-Draw/ -->

 <g>
  <title>background</title>
  <rect fill="none" id="canvas_background" height="202" width="202" y="-1" x="-1"/>
  <g display="none" overflow="visible" y="0" x="0" height="100%" width="100%" id="canvasGrid">
   <rect fill="url(#gridpattern)" stroke-width="0" y="0" x="0" height="100%" width="100%"/>
  </g>
 </g>
 <g>
  <title>Layer 1</title>
  <defs>
   <style type="text/css"/>
  </defs>
  <g stroke="null" id="svg_6">
   <path stroke="null" id="svg_4" fill="#ff4544" d="m168.62484,186.88441l-68.2291,-24.9853l-67.26812,24.9853l0,-172.0142l138.38014,0l-2.88292,172.0142z"/>
   <path stroke="null" id="svg_5" fill="#ff4544" d="m158.595161,195.052686c-3.603649,0 -7.35721,-0.901392 -10.661037,-2.552344l-42.493274,-21.322073a8.290316,8.290316 0 0 0 -7.057387,0l-42.493274,21.322073c-6.907474,3.453738 -15.315991,3.303826 -22.222504,-0.300784c-6.606692,-3.603651 -10.960861,-9.759644 -11.712342,-17.117817c-0.149913,-0.901392 -0.149913,-1.801824 -0.149913,-2.853129l0,-143.694323c0,-13.514166 10.810948,-24.325116 24.174243,-24.325116l111.563223,0c13.363293,0 24.325114,10.81095 24.325114,24.325116l0,143.695284c0,0.901394 0,1.951737 -0.149913,2.853129c-0.901392,7.357212 -5.10565,13.514166 -11.71234,17.117817c-3.60269,1.800863 -7.507123,2.702257 -11.410597,2.852168zm-56.757961,-38.738752c3.753561,0 7.657996,0.901394 11.111732,2.552346l43.994315,22.072593c2.402434,1.201217 5.255562,1.201217 7.657996,-0.149913c1.201217,-0.600608 3.303826,-2.102609 3.603649,-5.10565l0,-149.85224c0,-4.654955 -3.904433,-8.558427 -8.558427,-8.558427l-115.617569,0c-4.654955,0 -8.558427,3.904433 -8.558427,8.558427l0,150.00215c0.300784,2.853131 2.402432,4.505044 3.603649,5.105652c2.402434,1.351128 5.255562,1.351128 7.657996,0.149911l43.994315,-22.222504c3.452775,-1.651914 7.35721,-2.552346 11.110771,-2.552346z"/>
   <defs>
    <style type="text/css"/>
   </defs>
   <path stroke="null" id="svg_11" fill="#ffffff" d="m101.529935,35.660305l9.707949,30.451917l31.636233,0l-25.633666,18.731079l9.842276,30.442811l-25.552791,-18.886617l-25.553219,18.886617l9.842705,-30.442811l-25.633667,-18.731079l31.633234,0l9.710947,-30.451917z"/>
   <path stroke="null" id="svg_12" fill="#ff4544" d="m92.875346,71.051283a2.755229,5.854955 55.515 1 0 9.65218,-6.63004a2.755229,5.854955 55.515 1 0 -9.65218,6.63004z"/>
   <path stroke="null" id="svg_13" fill="#ff4544" d="m84.101772,77.829385a1.836891,3.214452 55.515 1 0 5.299181,-3.639984a1.836891,3.214452 55.515 1 0 -5.299181,3.639984z"/>
  </g>
 </g>
</svg>