<svg width="199.99999999999997" height="199.99999999999997" xmlns="http://www.w3.org/2000/svg">
 <!-- Created with Method Draw - http://github.com/duopixel/Method-Draw/ -->

 <g>
  <title>background</title>
  <rect fill="none" id="canvas_background" height="202" width="202" y="-1" x="-1"/>
  <g display="none" overflow="visible" y="0" x="0" height="100%" width="100%" id="canvasGrid">
   <rect fill="url(#gridpattern)" stroke-width="0" y="0" x="0" height="100%" width="100%"/>
  </g>
 </g>
 <g>
  <title>Layer 1</title>
  <defs>
   <style type="text/css"/>
  </defs>
  <path stroke="null" id="svg_4" fill="#f39c12" d="m100.192316,4.560631c-52.600192,0 -95.247065,42.646873 -95.247065,95.247065s42.646873,95.247065 95.247065,95.247065s95.247065,-42.646873 95.247065,-95.247065s-42.646873,-95.247065 -95.247065,-95.247065z"/>
  <path stroke="null" id="svg_5" fill="#FFFFFF" d="m94.372721,152.193581l-29.102741,0c-6.429177,0 -11.643954,-4.69568 -11.643954,-10.491464l0,-26.221517c0,-5.791022 5.210014,-10.491464 11.643954,-10.491464l29.097978,0l0,47.204445l0.004762,0zm52.381123,-10.491464c0,5.795784 -5.210014,10.491464 -11.643954,10.491464l-29.097978,0l0,-47.204445l29.097978,0c6.433939,0 11.643954,4.700443 11.643954,10.491464l0,26.221517zm5.824358,-49.82374c0,1.447755 -1.304885,2.624057 -2.909798,2.624057l-98.952176,0c-1.604913,0 -2.909798,-1.176301 -2.909798,-2.619294l0,-10.491464c0,-1.447755 1.304885,-2.619294 2.909798,-2.619294l17.596895,0c-5.857694,-3.809883 -9.305638,-8.781779 -9.986655,-13.877497c-1.028668,-7.643577 3.58129,-14.177526 11.539182,-16.572989c1.37632,-0.419087 2.871699,-0.676254 4.367078,-0.676254c13.806062,0 21.540124,18.263625 24.688039,26.245329l4.143247,0c2.871699,-7.867408 10.934363,-26.469159 24.740425,-26.469159c1.490617,0 2.93361,0.190494 4.367078,0.619106c7.962655,2.381177 12.596424,8.929412 11.543944,16.577752c-0.714353,5.152866 -4.12896,10.343831 -10.362881,14.148951l16.315822,0c1.604913,0 2.909798,1.176301 2.909798,2.619294l0,10.491464z"/>
 </g>
</svg>