<svg width="220" height="200" xmlns="http://www.w3.org/2000/svg">
 <!-- Created with Method Draw - http://github.com/duopixel/Method-Draw/ -->

 <g>
  <title>background</title>
  <rect fill="none" id="canvas_background" height="202" width="222" y="-1" x="-1"/>
  <g display="none" overflow="visible" y="0" x="0" height="100%" width="100%" id="canvasGrid">
   <rect fill="url(#gridpattern)" stroke-width="0" y="0" x="0" height="100%" width="100%"/>
  </g>
 </g>
 <g>
  <title>Layer 1</title>
  <defs>
   <style type="text/css"/>
  </defs>
  <path stroke="null" id="svg_4" fill="#3498db" d="m109.218606,24.661984c-25.73915,0 -48.426751,10.481406 -65.011255,27.06591c-10.481406,10.481406 -18.839996,24.014362 -23.085629,38.874077l-3.449577,0c-7.429858,0 -13.532955,6.103097 -13.532955,13.532955l0,20.962813c0,7.429858 6.103097,13.532955 13.532955,13.532955l17.911264,0l0,-46.171259c3.980281,-11.808167 10.481406,-21.891545 18.839996,-30.117459c13.930983,-13.930983 33.567036,-22.687601 55.060553,-22.687601s40.996894,8.756618 55.060553,22.687601c7.827886,7.827886 14.461687,17.911264 18.309292,28.790699l0,48.028723l17.513236,0c7.429858,0 13.532955,-6.103097 13.532955,-13.532955l0,-21.493517c0,-7.429858 -6.103097,-13.532955 -13.532955,-13.532955l-2.653521,0c-4.378309,-14.859716 -12.604223,-27.994643 -23.085629,-38.874077c-16.849856,-16.584504 -40.068161,-27.06591 -65.409283,-27.06591z"/>
  <path stroke="null" id="svg_5" fill="#3498db" d="m109.08593,61.545921c34.893796,0 63.286467,28.392671 63.286467,63.286467c0,2.122817 0,4.776337 -0.398028,7.03183c-7.03183,3.449577 -14.859716,6.103097 -23.085629,7.827886c-7.03183,1.724788 -14.859716,3.051549 -22.687601,3.449577c-1.724788,-3.449577 -5.705069,-6.103097 -10.083378,-6.103097l-12.604223,0c-6.103097,0 -11.410139,5.174365 -11.410139,11.410139s5.174365,11.410139 11.410139,11.410139l12.604223,0c4.776337,0 8.756618,-3.051549 10.481406,-7.03183c8.756618,-0.928732 16.584504,-1.724788 24.41239,-3.980281c6.501126,-1.724788 12.604223,-3.449577 18.309292,-5.705069c-7.827886,25.73915 -32.372952,44.579147 -60.765622,44.579147c-34.893796,0 -63.286467,-28.392671 -63.286467,-63.286467s28.790699,-62.888439 63.817171,-62.888439z"/>
 </g>
</svg>