<?xml version="1.0" standalone="no"?><!DOCTYPE svg PUBLIC "-//W3C//DTD SVG 1.1//EN" "http://www.w3.org/Graphics/SVG/1.1/DTD/svg11.dtd"><svg class="icon" width="200px" height="200.00px" viewBox="0 0 1024 1024" version="1.1" xmlns="http://www.w3.org/2000/svg"><path d="M935.438024 173.712689m19.394929 19.394929l0 0q19.394929 19.394929 0 38.789858l-64.649763 64.649763q-19.394929 19.394929-38.789857 0l0 0q-19.394929-19.394929 0-38.789858l64.649762-64.649763q19.394929-19.394929 38.789858 0Z" fill="#1296db" /><path d="M668.715656 18.28696m26.493966 7.099037l0 0q26.493966 7.099037 19.394928 33.593002l-23.663455 88.313218q-7.099037 26.493966-33.593002 19.394929l0 0q-26.493966-7.099037-19.394929-33.593002l23.663455-88.313218q7.099037-26.493966 33.593003-19.394929Z" fill="#1296db" /><path d="M855.880446-3.340046m23.75384 13.714286l0 0q23.75384 13.714286 10.039554 37.468125l-86.857143 150.440984q-13.714286 23.75384-37.468126 10.039554l0 0q-23.75384-13.714286-10.039554-37.468125l86.857143-150.440985q13.714286-23.75384 37.468126-10.039553Z" fill="#1296db" /><path d="M489.097143 155.428571c62.811429 0 133.787429 85.76 133.705143 183.177143 0 40.704-1.225143 63.670857-6.784 89.152 116.736 3.126857 196.498286 2.962286 230.427428 11.830857v0.091429C899.684571 454.884571 923.428571 498.651429 923.428571 532.909714c0.091429 238.235429-88.466286 407.232-106.56 438.72-18.441143 35.483429-51.931429 52.361143-97.161142 52.361143H571.300571c-75.501714 0-148.224-15.570286-162.139428-18.706286a11002.971429 11002.971429 0 0 1-94.198857-21.961142V424.685714l-0.027429-0.768c77.330286-50.011429 92.169143-136.374857 92.745143-187.675428 0.521143-44.534857 37.056-80.804571 81.417143-80.804572zM217.700571 426.788571a86.125714 86.125714 0 0 1 54.281143 21.750858l-1.398857-1.216c0.457143-0.219429 1.362286-0.649143 2.56-1.243429l0.027429 555.099429a80.457143 80.457143 0 0 1-55.469715 22.811428H136.274286c-44.882286 0-81.417143-36.534857-81.417143-81.417143v-434.377143a81.499429 81.499429 0 0 1 81.417143-81.408z" fill="#1296db" /></svg>