<svg width="200" height="200" xmlns="http://www.w3.org/2000/svg">
 <!-- Created with Method Draw - http://github.com/duopixel/Method-Draw/ -->

 <g>
  <title>background</title>
  <rect fill="none" id="canvas_background" height="202" width="202" y="-1" x="-1"/>
  <g display="none" overflow="visible" y="0" x="0" height="100%" width="100%" id="canvasGrid">
   <rect fill="url(#gridpattern)" stroke-width="0" y="0" x="0" height="100%" width="100%"/>
  </g>
 </g>
 <g>
  <title>Layer 1</title>
  <defs>
   <style type="text/css"/>
  </defs>
  <defs>
   <style type="text/css"/>
  </defs>
  <path stroke="null" id="svg_10" fill="#ff4544" d="m98.372597,129.282303c-0.050392,-0.125981 -2.418831,-8.037574 -2.418831,-11.21229c0,-0.151177 0,0.151177 0,0c-0.050392,-0.453531 -0.100785,-0.98265 -0.100785,-1.587358c0,-17.96486 14.084652,-32.578631 31.419608,-32.578631c8.541497,0 16.402698,1.738535 22.273403,8.037574c4.333739,-4.661289 10.028071,-6.828159 16.201129,-7.634436c-1.587358,-25.221354 -21.895461,-47.494757 -46.587695,-47.494757c-12.698863,0 -24.742627,5.492762 -33.410105,14.840537c-8.692674,-9.347774 -20.736438,-14.840537 -33.410105,-14.840537c-25.750473,0 -46.68848,21.719088 -46.68848,48.452211c0,0.907062 0.075588,1.688143 0.151177,2.343243c0,0.226765 -0.025196,0.428335 -0.025196,0.6551c0,4.736878 1.133827,9.927286 3.401481,15.445244c0.075588,0.201569 0.151177,0.403139 0.226765,0.579512c14.235829,34.115597 68.987079,73.37121 71.305125,75.185334c1.436181,1.108631 3.174716,1.662946 4.888055,1.662946c1.763731,0 3.47707,-0.579512 4.938447,-1.713339c1.033042,-0.806277 12.371313,-8.39032 27.363027,-21.794676c-8.869047,-8.995028 -15.621618,-18.972707 -19.527022,-28.345677z"/>
  <path stroke="null" id="svg_11" fill="#FDC8C8" d="m196.310061,119.20384c0,-15.294068 -11.993371,-27.740969 -26.733123,-27.740969c-7.281689,0 -14.16024,3.14952 -19.14908,8.491105c-4.988839,-5.366782 -11.86739,-8.491105 -19.14908,-8.491105c-14.739752,0 -26.733123,12.446902 -26.733123,27.740969c0,0.503923 0.050392,0.98265 0.100785,1.335396c0,0.125981 -0.025196,0.251962 -0.025196,0.377942c0,2.695989 0.6551,5.694332 1.940104,8.843851c0.050392,0.125981 0.075588,0.226765 0.125981,0.32755c8.138359,19.552218 39.507575,42.027191 40.842971,43.060233c0.831473,0.629904 1.814123,0.957454 2.796773,0.957454c1.007846,0 1.990496,-0.32755 2.82197,-0.98265c1.133827,-0.881866 27.892146,-20.13173 38.499728,-38.348552c0.403139,-0.604708 0.705492,-1.209416 0.98265,-1.713339c0.075588,-0.151177 0.151177,-0.32755 0.251962,-0.478727l0.025196,-0.075588c0.025196,-0.050392 0.075588,-0.125981 0.125981,-0.176373c0.629904,-1.234612 1.133827,-2.393635 1.536966,-3.502266c1.108631,-2.897558 1.63775,-5.467566 1.63775,-7.861201c0,-0.176373 0,-0.352746 -0.025196,-0.478727c0.075588,-0.352746 0.125981,-0.781081 0.125981,-1.285004zm0,0"/>
 </g>
</svg>