<svg width="200" height="200" xmlns="http://www.w3.org/2000/svg">
 <!-- Created with Method Draw - http://github.com/duopixel/Method-Draw/ -->

 <g>
  <title>background</title>
  <rect fill="none" id="canvas_background" height="202" width="202" y="-1" x="-1"/>
  <g display="none" overflow="visible" y="0" x="0" height="100%" width="100%" id="canvasGrid">
   <rect fill="url(#gridpattern)" stroke-width="0" y="0" x="0" height="100%" width="100%"/>
  </g>
 </g>
 <g>
  <title>Layer 1</title>
  <defs>
   <style type="text/css"/>
  </defs>
  <g id="svg_6">
   <defs>
    <style type="text/css"/>
   </defs>
   <g id="svg_14">
    <path stroke="null" id="svg_11" fill="#ff4544" d="m172.558653,185.465484l-24.303755,-19.237801l-24.239629,19.237801l-24.303755,-19.237801l-24.239629,19.237801l-24.303755,-19.237801l-24.239629,19.237801l0,-158.968359a14.74898,14.74898 0 0 1 14.74898,-14.74898l116.132189,0a14.74898,14.74898 0 0 1 14.74898,14.74898l0,158.968359z"/>
    <path stroke="null" id="svg_4" fill="#ffffff" d="m135.551855,144.320051c-1.48358,0 -3.30951,-0.45648 -4.90721,-1.25533l-19.17234,-9.58617l-19.28647,9.58617c-1.48357,0.79885 -3.19539,1.25533 -4.79308,1.25533c-2.28242,0 -4.45073,-0.68472 -6.16254,-2.05418c-3.19539,-2.39654 -4.79309,-6.5049 -4.10836,-10.38502l3.99424,-20.31355l-15.06399,-14.15102c-2.7389,-2.7389 -3.88012,-6.96138 -2.85303,-10.72738l0,-0.11412c1.25534,-3.99424 4.56485,-6.73315 8.55909,-7.30375l20.88416,-3.766l9.47205,-19.17234c1.82594,-3.53776 5.47781,-5.9343 9.35793,-5.9343c1.94006,0 3.99424,0.57061 5.70605,1.71182s3.08127,2.62478 3.766,4.45072l9.35793,18.9441l20.99828,3.65188c3.88012,0.5706 7.30375,3.53775 8.33084,7.30375c1.25533,3.88011 0.22824,7.98847 -2.62478,10.8415l-0.11413,0.11412l-14.94986,14.15102l3.766,20.42767c0.68472,3.99424 -0.91297,7.87436 -4.10836,10.2709c-1.48358,1.25534 -3.766,2.05418 -6.04842,2.05418z"/>
    <path stroke="null" id="svg_5" fill="#ffda80" d="m127.905741,141.695269c-1.825938,0 -3.994238,-0.570605 -5.934297,-1.483574l-23.394825,-11.754473l-23.508946,11.640352c-1.825938,0.912969 -3.880117,1.483574 -5.934297,1.483574c-2.738906,0 -5.363691,-0.912969 -7.531992,-2.396543l-0.114121,0c-3.880117,-2.967148 -5.934297,-7.988477 -5.021328,-12.667442l4.793086,-24.764278l-18.031133,-17.232285c-3.423633,-3.423633 -4.678965,-8.444961 -3.423633,-13.009805l0,-0.114121c1.597695,-4.793086 5.477813,-8.216719 10.38502,-8.901445l25.449004,-4.678965l11.526231,-23.394825c2.168301,-4.336602 6.733145,-7.189629 11.526231,-7.189629c2.396543,0 4.793086,0.684727 6.847266,2.05418c2.05418,1.369453 3.765996,3.195391 4.678965,5.363691l11.41211,23.052461l25.563125,4.450723c4.793086,0.684727 8.901445,4.336602 10.156777,8.901445c1.483574,4.678965 0.228242,9.700293 -3.195391,13.123926l-0.114121,0.114121l-18.259375,17.232285l4.564844,24.878399c0.798848,4.793086 -1.02709,9.700293 -5.021328,12.55332c-1.940059,1.711816 -4.678965,2.738906 -7.417871,2.738906zm-1.597695,-10.38502c0.798848,0.342363 1.369453,0.456484 1.597695,0.456484c0.570605,0 1.02709,-0.114121 1.369453,-0.456484l0.114121,-0.114121c1.02709,-0.798848 1.483574,-1.825938 1.255332,-2.967148l-5.591934,-30.013848l1.940059,-1.940059l20.199434,-18.944102c0.798848,-0.912969 1.141211,-2.05418 0.684727,-3.195391l0,-0.228242c-0.228242,-0.912969 -1.141211,-1.825938 -2.168301,-1.940059l-0.228242,0l-30.584453,-5.363691l-13.694531,-27.845547l0,-0.114121c-0.342363,-0.798848 -1.483574,-1.483574 -2.510664,-1.483574c-1.02709,0 -2.05418,0.684727 -2.624785,1.711816l-13.694531,27.617305l-30.698575,5.591934c-1.483574,0.228242 -2.05418,1.255332 -2.396543,2.05418c-0.228242,1.141211 0.114121,2.510664 0.912969,3.309512l22.253614,20.88416l-0.912969,2.738906l-5.24957,27.160821c-0.228242,1.02709 0.342363,2.282422 1.255332,2.967148c0.456484,0.342363 1.02709,0.570605 1.597695,0.570605c0.456484,0 0.912969,-0.114121 1.369453,-0.342363l0.114121,-0.114121l27.959668,-13.808653l27.731426,13.808653z"/>
   </g>
  </g>
 </g>
</svg>