<svg width="200" height="200" xmlns="http://www.w3.org/2000/svg">
 <!-- Created with Method Draw - http://github.com/duopixel/Method-Draw/ -->

 <g>
  <title>background</title>
  <rect fill="none" id="canvas_background" height="202" width="202" y="-1" x="-1"/>
  <g display="none" overflow="visible" y="0" x="0" height="100%" width="100%" id="canvasGrid">
   <rect fill="url(#gridpattern)" stroke-width="0" y="0" x="0" height="100%" width="100%"/>
  </g>
 </g>
 <g>
  <title>Layer 1</title>
  <defs>
   <style type="text/css"/>
  </defs>
  <defs>
   <style type="text/css"/>
  </defs>
  <defs>
   <style type="text/css"/>
  </defs>
  <path stroke="null" id="svg_16" fill="#3E81F3" d="m144.782331,196.099187l-90.321528,-0.29061c-15.494346,-0.048435 -27.980881,-12.714179 -27.811358,-28.208525l1.268996,-115.18804c0.154992,-13.963801 10.035725,-25.922395 23.718604,-28.702562l92.670623,-18.836359c13.091972,-2.65908 25.336332,7.352428 25.321801,20.715636l-0.174366,145.944244c-0.014531,13.600539 -11.072234,24.609807 -24.672772,24.566215z"/>
  <path stroke="null" id="svg_17" fill="#2FE39A" d="m48.164257,194.626765l-16.278993,-0.639342c-15.455598,-0.605437 -27.603088,-13.440704 -27.35607,-28.905989l0.634498,-39.60043a10.73222,10.73222 0 0 1 5.967188,-9.686993l25.404141,-12.573718c11.905315,-5.894536 25.859429,2.77048 25.859429,16.056192l0,61.120085c0.004844,7.856152 -6.369198,14.230193 -14.230193,14.230194z"/>
  <path stroke="null" id="svg_18" fill="#0A3195" d="m62.457416,180.333606l0,-61.120085c0,-13.285712 -13.954114,-21.945884 -25.859429,-16.056192l-9.231705,4.567417l-0.658716,59.817185c-0.140461,12.636683 8.146761,23.389246 19.616162,26.949216l1.898651,0.072652c7.860995,0.004844 14.235037,-6.369198 14.235037,-14.230193z"/>
  <path stroke="null" id="svg_19" fill="#6AEBB1" d="m162.683895,195.67296l-30.615743,0.59575c-10.563667,0.203427 -19.233526,-8.301753 -19.233526,-18.86542l0,-114.078879c0,-12.980571 11.774541,-22.774122 24.537154,-20.415339l34.582567,6.398259c11.934376,2.208634 20.686575,12.472004 20.982028,24.604963l2.135982,87.923997c0.445602,18.303574 -14.080045,33.47825 -32.388463,33.836669z"/>
  <path stroke="null" id="svg_20" fill="#19BAB7" d="m169.600408,48.866573l-32.223784,-5.962345c-12.762614,-2.358783 -24.537154,7.434768 -24.537154,20.415339l0,114.074036c0,9.66762 7.289463,17.528615 16.622881,18.647463l11.784228,0.038748l4.567417,-0.087183c13.116189,-0.503724 23.636264,-11.212695 23.650795,-24.464502l0.135618,-122.661555z"/>
  <path stroke="null" id="svg_21" fill="#FFF6F7" d="m82.068735,58.500288l-32.09301,0c-2.765637,0 -5.003332,-2.237696 -5.003332,-5.003332s2.237696,-5.003332 5.003332,-5.003332l32.09301,0c2.765637,0 5.003332,2.237696 5.003332,5.003332c0,2.760793 -2.242539,5.003332 -5.003332,5.003332zm-12.593091,22.943644l-19.495074,0c-2.765637,0 -5.003332,-2.237696 -5.003332,-5.003332s2.237696,-5.003332 5.003332,-5.003332l19.495074,0c2.765637,0 5.003332,2.237696 5.003332,5.003332s-2.242539,5.003332 -5.003332,5.003332z"/>
 </g>
</svg>