<svg width="200" height="200" xmlns="http://www.w3.org/2000/svg">
 <!-- Created with Method Draw - http://github.com/duopixel/Method-Draw/ -->

 <g>
  <title>background</title>
  <rect fill="none" id="canvas_background" height="202" width="202" y="-1" x="-1"/>
  <g display="none" overflow="visible" y="0" x="0" height="100%" width="100%" id="canvasGrid">
   <rect fill="url(#gridpattern)" stroke-width="0" y="0" x="0" height="100%" width="100%"/>
  </g>
 </g>
 <g>
  <title>Layer 1</title>
  <defs>
   <style type="text/css"/>
  </defs>
  <defs>
   <style type="text/css"/>
  </defs>
  <defs>
   <style type="text/css"/>
  </defs>
  <path stroke="null" id="svg_17" fill="#2ecc71" d="m100.000011,100.428605m-94.693854,0a94.693854,94.693854 0 1 0 189.387708,0a94.693854,94.693854 0 1 0 -189.387708,0z"/>
  <path stroke="null" id="svg_18" fill="#ffffff" d="m82.524604,114.445966c1.664485,-4.8087 4.8087,-12.761405 0.369932,-28.112126s-10.911953,-21.35084 -19.789489,-21.35084c0,0 -15.247798,-0.838781 -16.275552,23.385469c-1.136161,26.778133 8.259786,33.352766 11.207013,48.669952l22.267235,-6.362037c-0.792592,-6.617657 1.060867,-12.879724 2.22086,-16.230418zm0.49943,24.686349l-24.032534,6.866318c1.244989,15.749126 8.91107,28.399804 22.053585,24.847693c13.686236,-3.698903 7.431762,-22.294864 2.068163,-31.542332c-0.032902,-0.056523 -0.056945,-0.114734 -0.089214,-0.171679z"/>
  <path stroke="null" id="svg_19" fill="#ffffff" d="m117.475419,90.742026c-1.664485,-4.8087 -4.8087,-12.761405 -0.369932,-28.112126s10.911953,-21.35084 19.789489,-21.35084c0,0 15.247798,-0.838781 16.275552,23.385469c1.136161,26.778133 -8.259786,33.352766 -11.207013,48.669952l-22.267235,-6.362037c0.792381,-6.617447 -1.061078,-12.879513 -2.22086,-16.230418zm-0.49943,24.686349l24.032534,6.866318c-1.244989,15.749126 -8.91107,28.399804 -22.053585,24.847693c-13.686236,-3.698903 -7.431762,-22.294864 -2.068163,-31.542332c0.032902,-0.056312 0.056734,-0.114734 0.089214,-0.171679z"/>
 </g>
</svg>