<?xml version="1.0" standalone="no"?><!DOCTYPE svg PUBLIC "-//W3C//DTD SVG 1.1//EN" "http://www.w3.org/Graphics/SVG/1.1/DTD/svg11.dtd"><svg t="1585901746143" class="icon" viewBox="0 0 1024 1024" version="1.1" xmlns="http://www.w3.org/2000/svg" p-id="4880" xmlns:xlink="http://www.w3.org/1999/xlink" width="200" height="200"><defs><style type="text/css"></style></defs><path d="M544.323717 0.959161H479.292619A508.355189 508.355189 0 0 0 3.548895 508.355189v7.481454a508.547021 508.547021 0 0 0 366.015736 488.020982L159.50843 283.911577a8.824279 8.824279 0 0 1 13.42825-9.783439L333.883852 383.664294a246.696141 246.696141 0 0 1 101.86287-57.549644 249.381791 249.381791 0 0 1 115.099288-4.220308l63.880105-162.481828a9.975272 9.975272 0 0 1 19.183214 0l224.827276 728.962158a506.820532 506.820532 0 0 0 161.7145-341.653053v-69.63507A508.355189 508.355189 0 0 0 544.323717 0.959161z" fill="#F5F5F5" p-id="4881"></path><path d="M425.579618 1016.710378a509.122518 509.122518 0 0 0 50.835519 5.946797h69.826901A509.122518 509.122518 0 0 0 598.22855 1016.710378zM613.766954 159.796178l-56.398651 143.682278a25.321843 25.321843 0 0 1-26.281004 15.922069 249.381791 249.381791 0 0 0-95.916074 7.289621 245.73698 245.73698 0 0 0-86.324466 44.69689 25.513676 25.513676 0 0 1-30.117647 1.150993l-145.792432-98.409891a8.824279 8.824279 0 0 0-13.42825 9.783439l206.219558 706.325965a25.513676 25.513676 0 0 0 18.032222 17.456726q19.183215 5.179468 40.284751 8.632446H599.955039a506.436868 506.436868 0 0 0 245.161484-116.825777 25.321843 25.321843 0 0 0 7.481454-26.664669L632.374672 160.371675a9.975272 9.975272 0 0 0-18.607718-0.575497z" fill="#666666" p-id="4882"></path><path d="M705.270888 678.318471l-2.493818-2.493818a12.660922 12.660922 0 0 0-20.717872 3.836643 178.595729 178.595729 0 0 1-163.440989 98.409892 190.681154 190.681154 0 0 1-88.818284-21.677033 17.456725 17.456725 0 0 0-22.828025 6.522293 15.922068 15.922068 0 0 0 5.754964 23.595354 223.100787 223.100787 0 0 0 105.699513 26.089172 213.125515 213.125515 0 0 0 189.913825-109.727988 19.183215 19.183215 0 0 0-3.069314-23.787186z m-254.561259-51.411015a29.925815 29.925815 0 1 0-29.925815-29.925815 29.925815 29.925815 0 0 0 29.925815 29.925815z m119.127763-29.925815A29.925815 29.925815 0 1 0 540.678906 567.247658a29.925815 29.925815 0 0 0 29.925815 29.925815z m0 0" fill="#FFFFFF" p-id="4883"></path></svg>