<?xml version="1.0" standalone="no"?><!DOCTYPE svg PUBLIC "-//W3C//DTD SVG 1.1//EN" "http://www.w3.org/Graphics/SVG/1.1/DTD/svg11.dtd"><svg t="1585292578023" class="icon" viewBox="0 0 1024 1024" version="1.1" xmlns="http://www.w3.org/2000/svg" p-id="6065" xmlns:xlink="http://www.w3.org/1999/xlink" width="200" height="200"><defs><style type="text/css"></style></defs><path d="M512 202.7L785.9 439c-31.4 10.8-53.9 40.6-53.9 75.6V789c0 23.4-19.1 42.5-42.5 42.5h-355c-23.4 0-42.5-19.1-42.5-42.5V514.6c0-35-22.5-64.8-53.9-75.6L512 202.7m0-90.2c-11.3 0-22.5 3.9-31.6 11.7l-354 305.4c-33.9 29.3-13.2 84.9 31.6 84.9h54V789c0 67.6 54.8 122.5 122.5 122.5h355.1c67.6 0 122.5-54.8 122.5-122.5V514.6h54c44.8 0 65.5-55.7 31.6-84.9l-354-305.4c-9.2-7.8-20.4-11.8-31.7-11.8z" fill="#2c2c2c" p-id="6066"></path><path d="M637 765c-22.1 0-40-17.9-40-40V585c0-22.1 17.9-40 40-40s40 17.9 40 40v140c0 22.1-17.9 40-40 40z" fill="#2c2c2c" p-id="6067"></path></svg>