<?xml version="1.0" standalone="no"?><!DOCTYPE svg PUBLIC "-//W3C//DTD SVG 1.1//EN" "http://www.w3.org/Graphics/SVG/1.1/DTD/svg11.dtd"><svg t="1587905861342" class="icon" viewBox="0 0 1024 1024" version="1.1" xmlns="http://www.w3.org/2000/svg" p-id="3229" xmlns:xlink="http://www.w3.org/1999/xlink" width="200" height="200"><defs><style type="text/css"></style></defs><path d="M544 6.4C236.8-12.8-12.8 236.8 6.4 544c12.8 249.6 217.6 454.4 473.6 473.6 307.2 19.2 556.8-230.4 537.6-537.6C998.4 230.4 793.6 25.6 544 6.4z" fill="#6ABBFC" p-id="3230"></path><path d="M409.6 505.6c6.4-89.6 89.6-166.4 198.4-172.8 128-6.4 230.4 83.2 224 198.4 0 32-12.8 57.6-32 83.2L832 704l-96-32c-32 19.2-64 25.6-96 25.6-134.4 12.8-236.8-76.8-230.4-192z" fill="#FAFFFF" p-id="3231"></path><path d="M748.8 473.6c-6.4-121.6-121.6-217.6-256-230.4C320 236.8 179.2 358.4 192 505.6c0 38.4 19.2 76.8 38.4 115.2L192 736l128-38.4c38.4 19.2 83.2 32 128 38.4 172.8 6.4 307.2-115.2 300.8-262.4z" fill="#F8FCFB" p-id="3232"></path><path d="M288 428.8h390.4v25.6H288z" fill="#CFE4F5" p-id="3233"></path><path d="M288 537.6h390.4v25.6H288z" fill="#CFE4F5" p-id="3234"></path></svg>