<svg width="200" height="200" xmlns="http://www.w3.org/2000/svg">
 <!-- Created with Method Draw - http://github.com/duopixel/Method-Draw/ -->

 <g>
  <title>background</title>
  <rect fill="none" id="canvas_background" height="202" width="202" y="-1" x="-1"/>
  <g display="none" overflow="visible" y="0" x="0" height="100%" width="100%" id="canvasGrid">
   <rect fill="url(#gridpattern)" stroke-width="0" y="0" x="0" height="100%" width="100%"/>
  </g>
 </g>
 <g>
  <title>Layer 1</title>
  <defs>
   <style type="text/css"/>
  </defs>
  <defs>
   <style type="text/css"/>
  </defs>
  <path stroke="null" id="svg_18" fill="#c0392b" d="m195.943641,76.904797l-39.790225,97.267798a17.997733,17.997733 0 0 1 -23.216843,9.726243l-30.593145,-11.959343l68.165373,-66.639282c6.974313,-6.816537 5.763575,-18.450394 6.022891,-26.960931c0,0 0.279982,-32.500759 -10.295944,-43.076486a23.613666,23.613666 0 0 0 -10.295944,-5.188707c-7.391404,-7.14719 -27.067837,-7.70159 -33.334942,-7.681322c3.845827,-2.543484 23.832446,-14.991255 41.204442,-8.195185c19.376182,7.574615 24.417447,34.591383 24.417447,34.591383c3.159087,7.920568 11.379508,19.162768 7.716891,28.115832z"/>
  <path stroke="null" id="svg_19" fill="#ff4544" d="m59.292376,174.304935l-50.518362,-49.384326a17.183818,17.183818 0 0 1 0,-24.692064l75.780524,-74.071422c7.945606,-7.945804 27.591437,-3.484573 36.015536,-3.738922c0,0 26.762619,-0.930955 35.486769,7.793394c10.575727,10.575529 10.295944,43.076287 10.295944,43.076287c-0.259515,8.49007 0.951223,20.124125 -6.022891,26.960931l-75.775557,74.056122a18.150143,18.150143 0 0 1 -25.261963,0zm71.568872,-119.330138a18.150143,18.150143 0 0 0 -25.256797,0a17.183818,17.183818 0 0 0 0,24.692064a18.150143,18.150143 0 0 0 25.256797,0a17.183818,17.183818 0 0 0 0,-24.692064z"/>
 </g>
</svg>