<?xml version="1.0" standalone="no"?><!DOCTYPE svg PUBLIC "-//W3C//DTD SVG 1.1//EN" "http://www.w3.org/Graphics/SVG/1.1/DTD/svg11.dtd"><svg t="1587450811685" class="icon" viewBox="0 0 1170 1024" version="1.1" xmlns="http://www.w3.org/2000/svg" p-id="6428" xmlns:xlink="http://www.w3.org/1999/xlink" width="228.515625" height="200"><defs><style type="text/css"></style></defs><path d="M875.853736 597.468998c-105.81876 0-190.473768 84.655008-190.473768 190.473768 0 105.81876 84.655008 190.473768 190.473768 190.473768s190.473768-84.655008 190.473768-190.473768c-1.627981-105.81876-86.282989-190.473768-190.473768-190.473768z m92.794913 231.173291h-92.794913c-16.279809 0-29.303657-13.023847-29.303657-29.303656v-130.238474c0-16.279809 13.023847-29.303657 29.303657-29.303657s29.303657 13.023847 29.303657 29.303657v102.562798h65.119237c16.279809 0 29.303657 13.023847 29.303656 29.303657s-14.651828 27.675676-30.931637 27.675675z" fill="#515151" p-id="6429"></path><path d="M654.448331 976.788553H210.009539c-56.979332 0-102.562798-45.583466-102.562798-102.562798V258.848967c0-56.979332 45.583466-102.562798 102.562798-102.562798h700.031796c56.979332 0 102.562798 45.583466 102.562799 102.562798v296.292527c0 16.279809-13.023847 29.303657-29.303657 29.303657s-29.303657-13.023847-29.303657-29.303657V258.848967c0-26.047695-21.163752-45.583466-45.583465-45.583466h-700.031797c-26.047695 0-45.583466 21.163752-45.583466 45.583466v615.376788c0 26.047695 21.163752 45.583466 45.583466 45.583466h444.438792c16.279809 0 29.303657 13.023847 29.303656 29.303657s-11.395866 27.675676-27.675675 27.675675z" fill="#515151" p-id="6430"></path><path d="M411.879173 307.688394c-16.279809 0-29.303657-13.023847-29.303656-29.303656V73.259141c0-16.279809 13.023847-27.675676 29.303656-27.675675s29.303657 13.023847 29.303657 27.675675v205.125597c0 16.279809-13.023847 29.303657-29.303657 29.303656zM263.732909 499.790143c0-16.279809 13.023847-29.303657 29.303657-29.303657h535.605723c16.279809 0 29.303657 13.023847 29.303657 29.303657s-13.023847 29.303657-29.303657 29.303657h-537.233704c-16.279809 0-27.675676-13.023847-27.675676-29.303657zM263.732909 722.823529c0-16.279809 13.023847-29.303657 29.303657-29.303656h307.688394c16.279809 0 29.303657 13.023847 29.303657 29.303656s-13.023847 29.303657-29.303657 29.303657h-309.316375c-16.279809-1.627981-27.675676-13.023847-27.675676-29.303657zM695.147854 315.828299c-16.279809 0-29.303657-13.023847-29.303657-29.303657V81.399046c0-16.279809 13.023847-27.675676 29.303657-27.675676s29.303657 13.023847 29.303656 27.675676v205.125596c0 16.279809-13.023847 29.303657-29.303656 29.303657z" fill="#515151" p-id="6431"></path></svg>