<?xml version="1.0" standalone="no"?><!DOCTYPE svg PUBLIC "-//W3C//DTD SVG 1.1//EN" "http://www.w3.org/Graphics/SVG/1.1/DTD/svg11.dtd"><svg t="1585294195782" class="icon" viewBox="0 0 1024 1024" version="1.1" xmlns="http://www.w3.org/2000/svg" p-id="13096" xmlns:xlink="http://www.w3.org/1999/xlink" width="200" height="200"><defs><style type="text/css"></style></defs><path d="M245.421 709.579c34.612 34.613 74.928 61.792 119.824 80.781C411.744 810.028 461.119 820 512 820s100.256-9.972 146.755-29.64c44.896-18.99 85.212-46.168 119.824-80.781 34.612-34.612 61.792-74.927 80.781-119.824C879.028 543.256 889 493.881 889 443c0-50.88-9.972-100.256-29.64-146.755-18.989-44.897-46.169-85.212-80.781-119.824-34.612-34.613-74.928-61.792-119.824-80.781C612.256 75.972 562.881 66 512 66s-100.256 9.972-146.755 29.64c-44.896 18.99-85.212 46.168-119.824 80.781-34.612 34.612-61.792 74.927-80.781 119.824C144.972 342.744 135 392.12 135 443c0 50.881 9.972 100.256 29.64 146.755 18.989 44.897 46.169 85.212 80.781 119.824z m45.255-487.903C349.794 162.558 428.395 130 512 130s162.206 32.558 221.324 91.676C792.442 280.793 825 359.395 825 443s-32.558 162.207-91.676 221.324C674.206 723.442 595.605 756 512 756s-162.206-32.558-221.324-91.676C231.558 605.207 199 526.605 199 443s32.558-162.207 91.676-221.324z" fill="#2c2c2c" p-id="13097"></path><path d="M384 360m-48 0a48 48 0 1 0 96 0 48 48 0 1 0-96 0Z" fill="#2c2c2c" p-id="13098"></path><path d="M640 360m-48 0a48 48 0 1 0 96 0 48 48 0 1 0-96 0Z" fill="#2c2c2c" p-id="13099"></path><path d="M927 896H97c-17.6 0-32 14.4-32 32s14.4 32 32 32h830c17.6 0 32-14.4 32-32s-14.4-32-32-32z" fill="#2c2c2c" p-id="13100"></path></svg>