<?xml version="1.0" standalone="no"?><!DOCTYPE svg PUBLIC "-//W3C//DTD SVG 1.1//EN" "http://www.w3.org/Graphics/SVG/1.1/DTD/svg11.dtd"><svg t="1587905844277" class="icon" viewBox="0 0 1029 1024" version="1.1" xmlns="http://www.w3.org/2000/svg" p-id="2338" xmlns:xlink="http://www.w3.org/1999/xlink" width="200.9765625" height="200"><defs><style type="text/css"></style></defs><path d="M517.302044 512m-512 0a512 512 0 1 0 1024 0 512 512 0 1 0-1024 0Z" fill="#E65E4B" p-id="2339"></path><path d="M582.974578 656.702578c-0.341333 0-0.682667 0-1.024 0.045511h-115.666489l-1.024-0.045511a15.177956 15.177956 0 0 0-15.177956 15.177955 74.092089 74.092089 0 0 0 74.023823 74.023823 74.092089 74.092089 0 0 0 74.023822-74.023823 15.1552 15.1552 0 0 0-15.1552-15.177955zM726.038756 582.519467a134.189511 134.189511 0 0 1-38.365867-45.442845c-1.046756-1.979733-1.956978-4.027733-2.912711-6.075733-1.479111-3.208533-2.958222-6.417067-4.187022-9.716622-0.273067-0.728178-0.477867-1.501867-0.750934-2.2528a134.280533 134.280533 0 0 1-7.623111-44.2368v-79.6672a145.521778 145.521778 0 0 0-15.36-65.353956 149.481244 149.481244 0 0 0-30.196622-40.937244c-2.8672-2.844444-5.916444-5.370311-8.965689-7.964445-0.6144-0.500622-1.160533-1.092267-1.797689-1.592889-0.136533-0.113778-0.295822-0.091022-0.432355-0.182044-16.566044-13.425778-35.544178-23.438222-56.137956-28.307911-44.8512-10.558578-90.953956-0.477867-126.589156 27.739022a149.959111 149.959111 0 0 0-40.96 50.494578 145.521778 145.521778 0 0 0-15.36 65.353955v79.6672a135.213511 135.213511 0 0 1-53.816888 107.702045 26.578489 26.578489 0 0 0-9.398045 30.151111c3.709156 11.218489 13.767111 18.454756 25.6 18.454755h175.877689c1.206044 0.341333 110.091378 0.750933 195.151644 0.750934 11.832889 0 21.9136-7.213511 25.6-18.454756a26.510222 26.510222 0 0 0-9.375288-30.128355z" fill="#FFFFFF" p-id="2340"></path><path d="M485.626311 232.493511a31.675733 31.675733 0 1 0 63.328711 0 31.675733 31.675733 0 0 0-63.328711 0z" fill="#FFFFFF" p-id="2341"></path></svg>