<svg width="200" height="200" xmlns="http://www.w3.org/2000/svg">
 <!-- Created with Method Draw - http://github.com/duopixel/Method-Draw/ -->

 <g>
  <title>background</title>
  <rect fill="none" id="canvas_background" height="202" width="202" y="-1" x="-1"/>
  <g display="none" overflow="visible" y="0" x="0" height="100%" width="100%" id="canvasGrid">
   <rect fill="url(#gridpattern)" stroke-width="0" y="0" x="0" height="100%" width="100%"/>
  </g>
 </g>
 <g>
  <title>Layer 1</title>
  <defs>
   <style type="text/css"/>
  </defs>
  <path stroke="null" id="svg_4" fill="#ff4544" d="m99.363818,6.325126c-51.649822,0 -93.590884,41.937155 -93.590884,93.590884c0,51.649822 41.937155,93.590884 93.590884,93.590884c51.649822,0 93.586977,-41.941062 93.586977,-93.590884c0.003907,-51.649822 -41.937155,-93.590884 -93.586977,-93.590884z"/>
  <path stroke="null" id="svg_5" fill="#ff4544" d="m99.363818,4.371653c52.724232,0 95.54045,42.812311 95.54045,95.544356c0,52.728139 -42.812311,95.544356 -95.54045,95.544356c-52.732046,0 -95.544356,-42.820125 -95.544356,-95.544356c0,-52.732046 42.812311,-95.544356 95.544356,-95.544356zm0,3.906946c-50.575412,0 -91.637411,41.061999 -91.637411,91.637411c0,50.571505 41.061999,91.637411 91.637411,91.637411c50.571505,0 91.633504,-41.061999 91.633504,-91.637411c0.003907,-50.575412 -41.058092,-91.637411 -91.633504,-91.637411z"/>
  <path stroke="null" id="svg_6" fill="#ffffff" d="m136.466119,137.344536s5.262674,-0.305078 5.262674,4.45708c0,4.466597 -5.262674,4.466597 -5.262674,4.466597l-78.506462,0s-4.700188,-0.314607 -4.700188,-4.466597c0,-4.075721 4.700188,-4.45708 4.700188,-4.45708l77.53514,0l0.971321,0zm-72.142622,-26.833002l-2.049781,8.995176l9.519545,-1.954441l61.483782,-57.722668a4.752617,4.752617 0 0 0 0,-7.035977a5.472423,5.472423 0 0 0 -3.742032,-1.453914c-0.819917,0 -2.41207,0.204979 -3.742032,1.453914l-61.474253,57.722668l0.004771,-0.004758zm-8.213412,20.421493c-0.257408,0.03337 -0.505286,0.04767 -0.762706,0.04767c-3.146164,0 -5.682173,-2.621808 -5.224545,-5.672644l3.832601,-16.86537c0.4338,-1.88293 1.430085,-3.599022 2.874457,-4.957596l61.464712,-57.713139a16.412512,16.412512 0 0 1 11.235637,-4.37604c4.056651,0 8.127601,1.463443 11.221337,4.37127c6.211301,5.829942 6.211301,15.287517 0,21.10793l-61.459941,57.703609c-1.430072,1.353803 -3.241504,2.29766 -5.229316,2.698077l-17.947466,3.646704l-0.004771,0.009529z"/>
 </g>
</svg>