<svg width="199.99999999999997" height="199.99999999999997" xmlns="http://www.w3.org/2000/svg">
 <!-- Created with Method Draw - http://github.com/duopixel/Method-Draw/ -->

 <g>
  <title>background</title>
  <rect fill="none" id="canvas_background" height="202" width="202" y="-1" x="-1"/>
  <g display="none" overflow="visible" y="0" x="0" height="100%" width="100%" id="canvasGrid">
   <rect fill="url(#gridpattern)" stroke-width="0" y="0" x="0" height="100%" width="100%"/>
  </g>
 </g>
 <g>
  <title>Layer 1</title>
  <defs>
   <style type="text/css"/>
  </defs>
  <defs>
   <style type="text/css"/>
  </defs>
  <defs>
   <style type="text/css"/>
  </defs>
  <g stroke="null" id="svg_21">
   <path stroke="null" id="svg_16" fill="#ECAF1C" d="m65.320137,147.064971a5.567899,5.567899 0 1 1 8.916564,6.687423l-29.721881,39.629174a5.577806,5.577806 0 0 1 -8.916564,-6.687423l29.721881,-39.629174zm68.360326,0a5.577806,5.577806 0 0 0 -8.916564,6.687423l29.721881,39.629174a5.567899,5.567899 0 1 0 8.916564,-6.687423l-29.721881,-39.629174z"/>
   <path stroke="null" id="svg_17" fill="#ECAF1C" d="m25.819757,47.001305l0,83.597743c0,7.866391 6.37039,14.236781 14.236781,14.236781l118.887523,0c7.866391,0 14.246688,-6.37039 14.246688,-14.236781l0,-83.597743l-147.370993,0zm-5.577807,-11.145705l158.516698,0l5.577806,5.577806l0,89.165643a25.382486,25.382486 0 0 1 -25.392394,25.382486l-118.887523,0a25.382486,25.382486 0 0 1 -25.392394,-25.382486l0,-89.165643l5.577806,-5.577806z"/>
   <path stroke="null" id="svg_18" fill="#ECAF1C" d="m20.241951,41.433406l158.516698,0l0,89.165643a19.814587,19.814587 0 0 1 -19.814587,19.814587l-118.887523,0a19.814587,19.814587 0 0 1 -19.814587,-19.814587l0,-89.165643zm29.721881,39.629174l84.865877,0a4.953647,4.953647 0 1 0 0,-9.907293l-84.865877,0a4.953647,4.953647 0 1 0 0,9.907293zm0,39.629175l45.236703,0a4.953647,4.953647 0 1 0 0,-9.907294l-45.236703,0a4.953647,4.953647 0 0 0 0,9.907294z"/>
   <path stroke="null" id="svg_19" fill="#ECAF1C" d="m10.334657,42.047658a5.577806,5.577806 0 0 1 0,-11.145705l178.331285,0a5.567899,5.567899 0 1 1 0,11.145705l-178.331285,0z"/>
   <path stroke="null" id="svg_20" fill="#ECAF1C" d="m105.078106,36.479759a5.567899,5.567899 0 1 1 -11.155612,0l0,-25.986831a5.577806,5.577806 0 0 1 11.155612,0l0,25.986831z"/>
  </g>
 </g>
</svg>