<svg width="170" height="200" xmlns="http://www.w3.org/2000/svg">
 <!-- Created with Method Draw - http://github.com/duopixel/Method-Draw/ -->

 <g>
  <title>background</title>
  <rect fill="none" id="canvas_background" height="202" width="172" y="-1" x="-1"/>
  <g display="none" overflow="visible" y="0" x="0" height="100%" width="100%" id="canvasGrid">
   <rect fill="url(#gridpattern)" stroke-width="0" y="0" x="0" height="100%" width="100%"/>
  </g>
 </g>
 <g>
  <title>Layer 1</title>
  <defs>
   <style type="text/css"/>
  </defs>
  <path stroke="null" id="svg_4" fill="#ff4544" d="m160.057681,138.571921l-46.761621,0c-3.96285,0.792569 -7.9257,-0.792572 -8.718269,3.962847l-0.792569,5.547989l0,25.362238l-61.82045,0c-7.133128,0 -12.681116,-5.547989 -12.681116,-12.681119l0,-133.944306c0.792569,-6.340558 6.340558,-11.888547 13.473688,-11.888549l105.411791,0c7.133128,0 12.681119,5.547989 12.681119,12.681119l0,110.959782l-0.792572,0z"/>
  <path stroke="null" id="svg_8" fill="#ffffff" d="m138.18211,4.94399l-105.41179,0c-13.47369,0 -24.56967,11.09598 -24.56967,24.56967l0,142.66258c0,13.47368 11.09598,24.56966 24.56967,24.56966l80.84212,0c20.60682,-2.37771 46.76162,-26.1548 49.13933,-49.13933l0,-118.09291c0,-13.47369 -11.09598,-24.56967 -24.56966,-24.56967zm-27.73995,179.91336l-3.17028,0l0,-30.91022c0,-3.17028 3.17028,-6.34056 6.34056,-6.34056l37.25079,0c-3.17028,15.05883 -26.94738,37.25078 -40.42107,37.25078zm40.42107,-49.9319l-46.76163,0c-3.96285,0.79257 -7.92569,4.75542 -9.51084,9.51084l0,40.42106l-61.82044,0c-7.13313,0 -12.68112,-5.54799 -12.68112,-12.68112l0,-142.66257c0,-7.13313 5.54799,-12.68112 12.68112,-12.68112l105.41179,0c7.13312,0 12.68112,5.54799 12.68112,12.68112l0,105.41179zm-79.25699,-30.91022l-24.56967,0c-2.37771,0 -4.75542,2.37771 -4.75542,4.75542s2.37771,4.75542 4.75542,4.75542l24.56967,0c2.37771,0 4.75542,-2.37771 4.75542,-4.75542s-2.37771,-4.75542 -4.75542,-4.75542zm18.2291,0l-3.17027,0c-2.37771,0 -4.75542,2.37771 -4.75542,4.75542s2.37771,4.75542 4.75542,4.75542l3.17027,0c2.37772,0 4.75542,-2.37771 4.75542,-4.75542s-1.58514,-4.75542 -4.75542,-4.75542zm32.49537,-30.91023l-74.50157,0c-3.17028,0 -6.34056,3.17028 -6.34056,6.34056s3.17028,6.34056 6.34056,6.34056l74.50157,0c3.17028,0 6.34056,-3.17028 6.34056,-6.34056c0,-3.96285 -2.37771,-6.34056 -6.34056,-6.34056zm0,-30.91022l-74.50157,0c-3.17028,0 -6.34056,3.17028 -6.34056,6.34056s3.17028,6.34056 6.34056,6.34056l74.50157,0c3.17028,0 6.34056,-3.17028 6.34056,-6.34056c0,-3.96285 -2.37771,-6.34056 -6.34056,-6.34056zm0,0"/>
  <path stroke="null" id="svg_5" fill="#ff5656" d="m138.18211,4.94399l-105.41179,0c-13.47369,0 -24.56967,11.09598 -24.56967,24.56967l0,142.66258c0,13.47368 11.09598,24.56966 24.56967,24.56966l80.84212,0c20.60682,-2.37771 46.76162,-26.1548 49.13933,-49.13933l0,-118.09291c0,-13.47369 -11.09598,-24.56967 -24.56966,-24.56967zm-27.73995,179.91336l-3.17028,0l0,-30.91022c0,-3.17028 3.17028,-6.34056 6.34056,-6.34056l37.25079,0c-3.17028,15.05883 -26.94738,37.25078 -40.42107,37.25078zm40.42107,-49.9319l-46.76163,0c-3.96285,0.79257 -7.92569,4.75542 -9.51084,9.51084l0,40.42106l-61.82044,0c-7.13313,0 -12.68112,-5.54799 -12.68112,-12.68112l0,-142.66257c0,-7.13313 5.54799,-12.68112 12.68112,-12.68112l105.41179,0c7.13312,0 12.68112,5.54799 12.68112,12.68112l0,105.41179z"/>
 </g>
</svg>