<?xml version="1.0" standalone="no"?><!DOCTYPE svg PUBLIC "-//W3C//DTD SVG 1.1//EN" "http://www.w3.org/Graphics/SVG/1.1/DTD/svg11.dtd"><svg class="icon" width="200px" height="200.00px" viewBox="0 0 1024 1024" version="1.1" xmlns="http://www.w3.org/2000/svg"><path d="M512 512m-512 0a512 512 0 1 0 1024 0 512 512 0 1 0-1024 0Z" fill="#789BD6" /><path d="M251.409655 251.409655m69.914483 0l380.998621 0q69.914483 0 69.914482 69.914483l0 380.998621q0 69.914483-69.914482 69.914482l-380.998621 0q-69.914483 0-69.914483-69.914482l0-380.998621q0-69.914483 69.914483-69.914483Z" fill="#FFFFFF" /><path d="M143.324075 512.001774m49.437005-49.437004l269.406708-269.406709q49.437005-49.437005 98.87401 0l269.406708 269.406709q49.437005 49.437005 0 98.874009l-269.406708 269.406709q-49.437005 49.437005-98.87401 0l-269.406708-269.406709q-49.437005-49.437005 0-98.874009Z" fill="#FFFFFF" /><path d="M460.093793 632.408276l29.307586 24.717241 260.943449-308.965517-95.337931 6.355862-194.913104 277.892414z" fill="#789BD6" /><path d="M489.401379 657.125517l24.717242-29.307586-132.413793-138.416552-24.717242 55.790345 132.413793 111.933793z" fill="#789BD6" /></svg>