<?xml version="1.0" standalone="no"?><!DOCTYPE svg PUBLIC "-//W3C//DTD SVG 1.1//EN" "http://www.w3.org/Graphics/SVG/1.1/DTD/svg11.dtd"><svg t="1586855560824" class="icon" viewBox="0 0 1024 1024" version="1.1" xmlns="http://www.w3.org/2000/svg" p-id="2379" xmlns:xlink="http://www.w3.org/1999/xlink" width="200" height="200"><defs><style type="text/css"></style></defs><path d="M887.466667 389.12c-20.48 0-34.133333-13.653333-34.133334-34.133333V262.826667C853.333333 211.626667 812.373333 170.666667 761.173333 170.666667h-95.573333c-20.48 0-34.133333-13.653333-34.133333-34.133334s13.653333-34.133333 34.133333-34.133333h95.573333C849.92 102.4 921.6 174.08 921.6 262.826667v92.16c0 20.48-13.653333 34.133333-34.133333 34.133333zM136.533333 392.533333c-20.48 0-34.133333-13.653333-34.133333-34.133333V262.826667C102.4 174.08 174.08 102.4 262.826667 102.4h92.16c20.48 0 34.133333 13.653333 34.133333 34.133333s-13.653333 34.133333-34.133333 34.133334H262.826667C211.626667 170.666667 170.666667 211.626667 170.666667 262.826667v95.573333c0 20.48-13.653333 34.133333-34.133334 34.133333zM358.4 925.013333H262.826667C174.08 925.013333 102.4 853.333333 102.4 764.586667v-95.573334c0-20.48 13.653333-34.133333 34.133333-34.133333s34.133333 13.653333 34.133334 34.133333v95.573334c0 51.2 40.96 92.16 92.16 92.16h95.573333c20.48 0 34.133333 13.653333 34.133333 34.133333s-13.653333 34.133333-34.133333 34.133333zM764.586667 921.6h-95.573334c-20.48 0-34.133333-13.653333-34.133333-34.133333s13.653333-34.133333 34.133333-34.133334h95.573334a93.252267 93.252267 0 0 0 92.16-92.16v-95.573333c0-20.48 13.653333-34.133333 34.133333-34.133333s34.133333 13.653333 34.133333 34.133333v95.573333c0 44.373333-17.066667 85.333333-47.786666 112.64-30.72 30.72-68.266667 47.786667-112.64 47.786667z" fill="#4D4D4D" p-id="2380"></path><path d="M785.066667 546.133333H238.933333c-20.48 0-34.133333-13.653333-34.133333-34.133333s13.653333-34.133333 34.133333-34.133333h546.133334c20.48 0 34.133333 13.653333 34.133333 34.133333s-13.653333 34.133333-34.133333 34.133333z" fill="#4D4D4D" p-id="2381"></path></svg>