<svg width="190" height="200" xmlns="http://www.w3.org/2000/svg">
 <!-- Created with Method Draw - http://github.com/duopixel/Method-Draw/ -->

 <g>
  <title>background</title>
  <rect fill="none" id="canvas_background" height="202" width="192" y="-1" x="-1"/>
  <g display="none" overflow="visible" y="0" x="0" height="100%" width="100%" id="canvasGrid">
   <rect fill="url(#gridpattern)" stroke-width="0" y="0" x="0" height="100%" width="100%"/>
  </g>
 </g>
 <g>
  <title>Layer 1</title>
  <defs>
   <style type="text/css"/>
  </defs>
  <path stroke="null" id="svg_4" fill="#ff4544" d="m159.710689,67.145416c-4.866919,-5.010598 -10.025388,-9.453467 -15.281195,-13.235227c-0.876046,-0.661109 -1.654287,-1.22907 -2.432995,-1.702257c7.494591,-3.78176 12.458383,-10.587995 12.458383,-18.435144c0,-12.384797 -12.068797,-21.838264 -26.376374,-21.838264c-3.309274,0 -6.32653,0.567729 -9.051772,1.60748c-1.362738,0.472022 -2.335888,0.945207 -3.114596,1.416995c-0.389586,0.189321 -1.459609,-0.094542 -1.849196,-0.566565c-1.070489,-1.60748 -2.72501,-3.497662 -5.060898,-5.48262c-4.059569,-3.440142 -8.809823,-5.687075 -14.113368,-6.14955c-5.303545,0.462475 -10.053797,2.709408 -14.1136,6.14955c-2.336122,1.984958 -3.990408,3.87514 -5.060898,5.48262c-0.389586,0.472022 -1.459609,0.755886 -1.849196,0.566565c-0.778709,-0.47202 -1.751858,-0.945207 -3.114596,-1.416995c-2.725242,-1.039751 -5.742499,-1.60748 -9.051772,-1.60748c-14.307577,0 -26.376374,9.453467 -26.376374,21.838264c0,7.847149 4.963792,14.653384 12.458383,18.435144c-0.778709,0.473187 -1.556949,1.040916 -2.432995,1.702257c-5.255807,3.78176 -10.414042,8.224629 -15.281195,13.235227c-14.11267,14.464529 -22.775088,31.10334 -22.775088,49.538252c0,51.239811 39.321449,75.630763 86.72175,75.630763c0.292249,0 0.583797,-0.003725 0.875814,-0.005356c0.292015,0.001631 0.583563,0.005356 0.875812,0.005356c47.400069,0 86.72175,-24.390951 86.72175,-75.630763c-0.000698,-18.434912 -8.663116,-35.073955 -22.775786,-49.538252z"/>
  <path stroke="null" id="svg_5" fill="#FFFFFF" d="m119.992435,114.066477c3.858139,0 6.986009,-3.127867 6.986009,-6.986009s-3.127869,-6.986009 -6.986009,-6.986006l-8.2386,0l13.023085,-13.023085c2.728269,-2.728269 2.728269,-7.151577 0,-9.879846c-2.728037,-2.728269 -7.151577,-2.728037 -9.879614,0l-20.009094,20.009092l-20.009092,-20.009092c-2.728269,-2.728037 -7.151577,-2.728037 -9.879614,0c-2.728269,2.728269 -2.728269,7.151577 0,9.879846l13.023085,13.023085l-8.177357,0c-3.858139,0 -6.986009,3.127867 -6.986009,6.986006s3.127869,6.986009 6.986009,6.986009l18.056968,0l0,6.981353l-13.96247,0c-3.858139,0 -6.986009,3.127867 -6.986009,6.986009s3.127869,6.986009 6.986009,6.986009l13.96247,0l0,10.747741c0,3.858139 3.127869,6.986009 6.986009,6.986009s6.986009,-3.127869 6.986009,-6.986009l0,-10.747741l13.350962,0c3.858139,0 6.986009,-3.127869 6.986009,-6.986009s-3.127869,-6.986009 -6.986009,-6.986009l-13.350962,0l0,-6.981353l18.118214,0z"/>
 </g>
</svg>