<svg width="200" height="200" xmlns="http://www.w3.org/2000/svg">
 <!-- Created with Method Draw - http://github.com/duopixel/Method-Draw/ -->

 <g>
  <title>background</title>
  <rect fill="#fff" id="canvas_background" height="202" width="202" y="-1" x="-1"/>
  <g display="none" overflow="visible" y="0" x="0" height="100%" width="100%" id="canvasGrid">
   <rect fill="url(#gridpattern)" stroke-width="0" y="0" x="0" height="100%" width="100%"/>
  </g>
 </g>
 <g>
  <title>Layer 1</title>
  <!-- Created with Method Draw - http://github.com/duopixel/Method-Draw/ -->
  <g stroke="null" transform="matrix(0.9615769791706298,0,0,0.9615769791706298,-1.3436518773005446,-1.2929639811371771) " id="svg_12">
   <title stroke="null" transform="translate(-0.442533016204834,0) translate(5.752929210662842,0) translate(-63.10635757446289,-58.25202560424805) translate(67.96788024902344,0) translate(0,62.96787643432617) ">background</title>
   <rect stroke="null" x="9.171919" y="3.715851" width="192" height="202" id="svg_10" fill="none"/>
   <g stroke="null" id="svg_9" display="none">
    <rect stroke="null" id="svg_13" width="200" height="200" x="10.171919" y="4.715851" stroke-width="0" fill="url(#gridpattern)"/>
   </g>
  </g>
  <defs stroke="null" transform="translate(-0.442533016204834,0) translate(5.752929210662842,0) translate(-63.10635757446289,-58.25202560424805) translate(67.96788024902344,0) translate(0,62.96787643432617) ">
   <style stroke="null" type="text/css"/>
  </defs>
  <path stroke="null" d="m162.011554,68.232709c-4.679918,-4.818078 -9.640184,-9.090239 -14.69405,-12.726692c-0.84238,-0.635708 -1.590718,-1.181845 -2.339507,-1.636854c7.206625,-3.636453 11.979691,-10.181167 11.979691,-17.726806c0,-11.908939 -11.605071,-20.999178 -25.36291,-20.999178c-3.182127,0 -6.083446,0.545916 -8.703974,1.545716c-1.310379,0.453893 -2.246138,0.908892 -2.994928,1.362555c-0.374621,0.182046 -1.403527,-0.090907 -1.778148,-0.544801c-1.029359,-1.545716 -2.620307,-3.363269 -4.866435,-5.271961c-3.903589,-3.307959 -8.47133,-5.468556 -13.571092,-5.913266c-5.099772,0.44471 -9.667503,2.605306 -13.571313,5.913266c-2.246359,1.908692 -3.837086,3.726245 -4.866445,5.271961c-0.374621,0.453893 -1.403527,0.726846 -1.778148,0.544801c-0.74879,-0.453884 -1.684539,-0.908892 -2.994918,-1.362555c-2.620528,-0.9998 -5.521856,-1.545716 -8.703974,-1.545716c-13.75784,0 -25.36292,9.090239 -25.36292,20.999178c0,7.545639 4.773066,14.090353 11.979691,17.726806c-0.74878,0.455009 -1.497118,1.000925 -2.339507,1.636854c-5.053866,3.636453 -10.013901,7.908615 -14.69405,12.726692c-13.570419,13.908749 -21.899993,29.908256 -21.899993,47.634841c0,49.271022 37.810601,72.724798 83.389638,72.724798c0.281021,0 0.561359,-0.003577 0.842159,-0.005144c0.2808,0.001567 0.561138,0.005144 0.842159,0.005144c45.578816,0 83.389638,-23.453776 83.389638,-72.724798c-0.000673,-17.726585 -8.330247,-33.726313 -21.900666,-47.634841z" fill="#f39c12" id="svg_8"/>
  <path stroke="null" d="m123.819399,112.925391c3.709889,0 6.717577,-3.007688 6.717577,-6.717586s-3.007688,-6.717586 -6.717577,-6.717586l-7.922058,0l12.522704,-12.522694c2.623442,-2.623442 2.623442,-6.876795 0,-9.500236c-2.62322,-2.623442 -6.876795,-2.62322 -9.500006,0l-19.24029,19.24028l-19.24028,-19.24028c-2.623442,-2.62322 -6.876795,-2.62322 -9.500006,0c-2.623442,2.623442 -2.623442,6.876795 0,9.500236l12.522694,12.522694l-7.863161,0c-3.709899,0 -6.717586,3.007688 -6.717586,6.717586s3.007688,6.717586 6.717586,6.717586l17.363167,0l0,6.713105l-13.42599,0c-3.709899,0 -6.717586,3.007688 -6.717586,6.717586s3.007688,6.717586 6.717586,6.717586l13.42599,0l0,10.334779c0,3.709899 3.007688,6.717586 6.717586,6.717586s6.717586,-3.007688 6.717586,-6.717586l0,-10.334779l12.837976,0c3.709899,0 6.717586,-3.007688 6.717586,-6.717586s-3.007688,-6.717586 -6.717586,-6.717586l-12.837976,0l0,-6.713105l17.422054,0l0.00001,0z" fill="#FFFFFF" id="svg_7"/>
 </g>
</svg>