<?xml version="1.0" standalone="no"?><!DOCTYPE svg PUBLIC "-//W3C//DTD SVG 1.1//EN" "http://www.w3.org/Graphics/SVG/1.1/DTD/svg11.dtd"><svg t="1586867537463" class="icon" viewBox="0 0 1024 1024" version="1.1" xmlns="http://www.w3.org/2000/svg" p-id="4177" xmlns:xlink="http://www.w3.org/1999/xlink" width="200" height="200"><defs><style type="text/css"></style></defs><path d="M284.672 694.784v-35.84H537.6c25.088-35.84 41.984-73.728 50.176-113.152H645.12c-14.336 44.544-33.28 81.92-57.344 113.152h87.552v35.84H284.672z" fill="#515151" p-id="4178"></path><path d="M345.088 640.512c-4.608-35.84-12.8-65.536-23.04-89.6h48.64c13.312 29.696 22.016 59.904 27.136 89.6H345.088zM571.904 328.704c3.584-8.704 6.656-17.92 9.216-28.672H527.36c-6.144 34.304-22.016 60.928-48.64 78.848v14.336h-29.184L435.2 409.088c-1.024-13.312-5.632-28.672-14.336-46.592h63.488v-33.792H379.904c3.584-9.216 6.656-18.432 9.216-27.136H334.848c-7.68 35.84-27.648 62.976-61.952 81.408v28.672c37.376-9.728 66.048-26.112 86.528-48.64H373.76c7.68 16.384 11.264 33.28 12.8 50.176h45.056c-34.816 35.84-87.552 64-158.208 84.48v32.256c31.232-4.608 59.904-12.288 86.528-21.504v25.088h240.64v-25.088c25.6 8.704 53.248 15.36 84.48 21.504v-32.256c-81.92-24.064-139.776-57.856-174.08-102.4 15.36-9.216 28.672-20.48 39.424-32.256h27.136c6.144 17.92 9.216 34.304 10.752 50.176h48.64c-2.56-18.944-6.656-35.84-12.8-50.176h62.976v-33.792h-115.2z m3.072 169.984H385.024c33.28-14.336 65.536-34.304 95.232-60.928 26.112 25.088 58.368 45.568 94.72 60.928zM465.92 640.512c-2.56-26.624-10.752-56.32-25.088-89.6h48.64c14.336 27.136 24.064 57.344 28.672 89.6H465.92z" fill="#515151" p-id="4179"></path><path d="M969.216 723.968L742.4 945.664c-9.216 8.704-20.992 13.824-34.304 13.824-13.312 0-25.6-5.12-34.304-13.824l-113.664-110.592c-9.216-8.704-14.336-20.48-14.336-33.28 0-26.112 21.504-47.104 48.64-47.104 13.312 0 25.6 5.12 34.304 13.824l79.36 76.8 193.024-187.904c9.216-8.704 20.992-13.824 34.304-13.824 27.136 0 48.64 20.992 48.64 47.104-0.512 12.8-5.632 24.576-14.848 33.28z" fill="#FFE5E5" p-id="4180"></path><path d="M480.768 899.584c-221.696 0-401.92-180.224-401.92-401.92s180.224-401.92 401.92-401.92 401.92 180.224 401.92 401.92c0 13.312-10.752 24.064-24.064 24.064s-24.064-10.752-24.064-24.064c0-195.072-158.72-353.792-353.792-353.792s-353.792 158.72-353.792 353.792c0 195.072 158.72 353.792 353.792 353.792 7.68 0 15.872-0.512 23.552-1.024 13.312-1.024 24.576 9.216 25.6 22.528 1.024 13.312-9.216 24.576-22.528 25.6-8.704 0.512-17.92 1.024-26.624 1.024z" fill="#515151" p-id="4181"></path></svg>