<?xml version="1.0" standalone="no"?><!DOCTYPE svg PUBLIC "-//W3C//DTD SVG 1.1//EN" "http://www.w3.org/Graphics/SVG/1.1/DTD/svg11.dtd"><svg t="1589938196529" class="icon" viewBox="0 0 1024 1024" version="1.1" xmlns="http://www.w3.org/2000/svg" p-id="4247" xmlns:xlink="http://www.w3.org/1999/xlink" width="200" height="200"><defs><style type="text/css"></style></defs><path d="M478.094222 98.076444c0-25.031111 18.204444-45.283556 40.277334-45.283555 22.300444 0 40.277333 20.366222 40.277333 45.283555v880.071112c0 24.917333-17.976889 45.169778-40.277333 45.169777-22.186667 0-40.277333-20.252444-40.277334-45.169777V98.076444z" fill="#ff4544" p-id="4248"></path><path d="M171.008 363.178667c0-12.060444 4.323556-24.120889 12.743111-33.109334L484.465778 12.515556a36.977778 36.977778 0 0 1 55.182222 0l300.828444 317.44c16.270222 17.066667 17.066667 45.624889 1.934223 63.943111a37.205333 37.205333 0 0 1-56.888889 2.048L512 107.747556 238.705778 395.946667a37.091556 37.091556 0 0 1-56.888889-2.048 48.241778 48.241778 0 0 1-10.808889-30.833778z" fill="#ff4544" p-id="4249"></path></svg>