<?xml version="1.0" standalone="no"?><!DOCTYPE svg PUBLIC "-//W3C//DTD SVG 1.1//EN" "http://www.w3.org/Graphics/SVG/1.1/DTD/svg11.dtd"><svg t="1589625766891" class="icon" viewBox="0 0 1024 1024" version="1.1" xmlns="http://www.w3.org/2000/svg" p-id="5941" xmlns:xlink="http://www.w3.org/1999/xlink" width="200" height="200"><defs><style type="text/css"></style></defs><path d="M292.717 936.427c-16.663 0-33.205-6.69-46.462-16.664-23.232-19.947-36.49-53.152-33.205-83.073l36.489-195.945-139.51-132.82c-23.23-23.23-26.515-59.841-23.23-86.357 9.973-36.489 36.488-59.841 66.409-63.125l192.661-36.49 86.357-185.971c19.948-29.92 46.463-46.463 79.668-46.463 33.205 0 59.842 16.664 76.383 46.463l86.357 185.972 192.662 33.205c29.92 6.69 56.436 29.92 66.41 59.841 9.973 29.921 3.283 59.842-16.664 86.357L774.25 640.745l33.205 195.945c3.284 33.205-6.69 63.126-33.205 83.073-16.663 9.974-29.921 16.664-49.868 16.664-16.664 0-33.205-6.69-36.49-9.974l-175.997-93.047-179.404 89.641c-13.258 9.974-26.515 13.38-39.773 13.38z" fill="#707070" p-id="5942"></path><path d="M511.894 139.266c-13.258 0-23.232 6.69-29.921 19.947l-99.615 205.92-219.176 43.178c-19.948 3.284-23.232 16.663-26.516 26.515 0 9.974 0 29.92 9.974 39.895l159.335 152.766-43.179 215.893c-3.284 13.258 3.284 26.515 13.258 36.489 9.973 6.69 23.231 6.69 33.205 0l199.23-103.02 199.228 103.02c3.284 3.284 9.974 3.284 16.664 3.284s13.257 0 19.947-6.69c9.974-6.69 13.258-23.231 13.258-36.489L717.69 617.392l159.457-156.05c6.69-9.974 9.973-23.232 6.69-39.895-3.285-13.258-16.664-23.232-26.516-26.516L638.145 355.16l-99.614-205.92c-3.406-3.283-13.38-9.973-26.637-9.973z" fill="#707070" p-id="5943"></path></svg>