<?xml version="1.0" standalone="no"?><!DOCTYPE svg PUBLIC "-//W3C//DTD SVG 1.1//EN" "http://www.w3.org/Graphics/SVG/1.1/DTD/svg11.dtd"><svg t="1589624902150" class="icon" viewBox="0 0 1080 1024" version="1.1" xmlns="http://www.w3.org/2000/svg" p-id="3026" xmlns:xlink="http://www.w3.org/1999/xlink" width="210.9375" height="200"><defs><style type="text/css"></style></defs><path d="M796.20583 430.315801h-211.623727c13.198039-32.028 10.353634-16.725101 17.521534-61.211594 14.222025-88.460994 8.760767-210.429077-60.699601-242.570853-73.385647-32.084888-136.758989 1.137762-154.792517 58.253413-11.491396 36.237719-3.982167 74.80785-11.491396 102.796794C336.891321 429.576256 227.552395 456.939431 227.552395 456.939431V1024h489.465202a113.776198 113.776198 0 0 0 110.362912-85.901029c41.186984-162.870627 68.8346-277.101929 82.829071-342.637019 24.575659-114.800183-57.74142-165.146151-114.00375-165.146151zM28.444049 470.933904H170.664296V1024H0V499.377953a28.444049 28.444049 0 0 1 28.444049-28.444049z" fill="#ff4544" p-id="3027"></path><path d="M919.141012 11.221177c-5.119929-14.96157-13.596256-14.96157-18.602408 0l-28.785378 84.649491a66.559076 66.559076 0 0 1-36.635936 36.52216l-84.308162 28.500937c-15.018458 5.119929-15.018458 13.539368 0 18.716185l83.739281 29.069818c15.018458 5.119929 31.516007 21.731254 36.635936 36.692824l29.240482 84.763267c5.119929 14.96157 13.596256 14.96157 18.602409 0l28.444049-84.36505c5.063041-14.96157 21.503701-31.516007 36.52216-36.635936l85.616588-29.240483c15.018458-5.119929 15.018458-13.425591 0-18.54552l-84.194386-28.444049c-15.018458-5.119929-31.629783-21.333037-36.749712-36.351495l-29.524923-85.332149z" fill="#ff4544" p-id="3028"></path></svg>