<?xml version="1.0" standalone="no"?><!DOCTYPE svg PUBLIC "-//W3C//DTD SVG 1.1//EN" "http://www.w3.org/Graphics/SVG/1.1/DTD/svg11.dtd"><svg t="1589871915449" class="icon" viewBox="0 0 1024 1024" version="1.1" xmlns="http://www.w3.org/2000/svg" p-id="2255" xmlns:xlink="http://www.w3.org/1999/xlink" width="200" height="200"><defs><style type="text/css"></style></defs><path d="M603.755789 939.924211H202.105263V128h703.541895v596.345263a215.578947 215.578947 0 0 1-215.578947 215.578948h-86.312422z" fill="#397AFD" p-id="2256"></path><path d="M411.998316 986.597053H246.460632a91.621053 91.621053 0 0 1-91.513264-91.513264v-732.968421a91.621053 91.621053 0 0 1 91.513264-91.54021h594.162526a91.621053 91.621053 0 0 1 91.513263 91.513263v213.61179a35.381895 35.381895 0 1 1-70.736842 0V162.115368a21.045895 21.045895 0 0 0-20.803368-20.803368H246.460632a21.045895 21.045895 0 0 0-20.776421 20.803368v732.941474c0 11.237053 9.512421 20.749474 20.749473 20.749474h165.564632a35.381895 35.381895 0 1 1 0 70.763789z" fill="#000000" p-id="2257"></path><path d="M697.209263 320.700632H336.518737a35.381895 35.381895 0 1 1 0-70.76379h360.690526a35.381895 35.381895 0 1 1 0 70.76379zM648.542316 493.999158h-311.781053a35.381895 35.381895 0 1 1 0-70.76379H648.623158a35.381895 35.381895 0 1 1 0 70.76379h-0.053895zM546.842947 670.881684h-208.896a35.381895 35.381895 0 1 1 0-70.736842h208.922948a35.381895 35.381895 0 1 1 0 70.736842h-0.026948z" fill="#FFFFFF" p-id="2258"></path><path d="M514.479158 981.450105l-3.503158-162.115368c-6.090105-19.267368 3.179789-39.073684 14.362947-51.604211L816.235789 441.128421a48.289684 48.289684 0 0 1 31.33979-15.952842c12.907789-1.212632 25.815579 2.937263 35.381895 11.479579l119.969684 106.846316c19.267368 17.138526 20.695579 47.077053 3.260631 66.775579l-73.054315 82.782315a35.381895 35.381895 0 1 1-53.086316-46.807579l58.017684-65.751578-84.291368-75.102316-272.410948 305.744842c0.188632 1.724632 0.296421 3.395368 0.296421 5.12l1.832421 85.989052 75.290948-8.623157c1.212632-1.212632 2.425263-2.506105 3.584-3.772632l0.242526-0.323368 149.288421-164.055579a35.381895 35.381895 0 0 1 52.304842 47.642947l-149.153684 163.947789c-3.610947 4.042105-9.162105 9.862737-15.279158 14.821053-13.904842 11.237053-26.273684 13.554526-35.947789 12.39579l-149.369263 17.138526v0.026947z" fill="#000000" p-id="2259"></path><path d="M901.12 705.024a35.301053 35.301053 0 0 1-25.411368-10.725053L766.383158 581.524211a35.381895 35.381895 0 1 1 50.795789-49.25979l109.325474 112.74779a35.381895 35.381895 0 0 1-25.384421 60.011789z" fill="#000000" p-id="2260"></path></svg>