<svg width="200" height="200" xmlns="http://www.w3.org/2000/svg">
 <!-- Created with Method Draw - http://github.com/duopixel/Method-Draw/ -->

 <g>
  <title>background</title>
  <rect fill="#fbfbfb" id="canvas_background" height="202" width="202" y="-1" x="-1"/>
  <g display="none" overflow="visible" y="0" x="0" height="100%" width="100%" id="canvasGrid">
   <rect fill="url(#gridpattern)" stroke-width="0" y="0" x="0" height="100%" width="100%"/>
  </g>
 </g>
 <g>
  <title>Layer 1</title>
  <defs>
   <style type="text/css"/>
  </defs>
  <path stroke="null" id="svg_5" fill="#666666" d="m83.643375,198.514142a98.922008,98.922008 0 0 0 9.877292,1.155455l13.567298,0a98.922008,98.922008 0 0 0 10.100928,-1.155455l-33.545518,0zm36.564614,-166.497591l-10.958203,27.917327a4.920009,4.920009 0 0 1 -5.106373,3.093643a48.454638,48.454638 0 0 0 -18.636399,1.416366a47.746455,47.746455 0 0 0 -16.77276,8.684562a4.957283,4.957283 0 0 1 -5.85183,0.223636l-28.327327,-19.120945a1.714549,1.714549 0 0 0 -2.609096,1.900913l40.068259,137.238444a4.957283,4.957283 0 0 0 3.503643,3.391826q3.727281,1.006366 7.827288,1.677275l34.179157,0a98.400189,98.400189 0 0 0 47.634636,-22.699133a4.920009,4.920009 0 0 0 1.45364,-5.180919l-42.789174,-138.431175a1.938185,1.938185 0 0 0 -3.615462,-0.111817z"/>
  <path stroke="null" id="svg_6" fill="#FFFFFF" d="m137.987115,132.764925l-0.484547,-0.484547a2.460004,2.460004 0 0 0 -4.025462,0.745457a34.700976,34.700976 0 0 1 -31.756425,19.120945a37.049161,37.049161 0 0 1 -17.257307,-4.211828a3.391824,3.391824 0 0 0 -4.435462,1.267277a3.093643,3.093643 0 0 0 1.118183,4.584553a43.348265,43.348265 0 0 0 20.537313,5.0691a41.41008,41.41008 0 0 0 36.90007,-21.320039a3.727281,3.727281 0 0 0 -0.596364,-4.621828l0,-0.149091zm-49.461004,-9.840019a5.814558,5.814558 0 1 0 -5.814558,-5.814556a5.814558,5.814558 0 0 0 5.814558,5.814556zm23.146407,-5.814556a5.814558,5.814558 0 1 0 -5.665464,-5.926375a5.814558,5.814558 0 0 0 5.814556,5.814556l-0.149091,0.111819zm0,0"/>
 </g>
</svg>